<svg xmlns="http://www.w3.org/2000/svg" width="148.998" height="10.522" viewBox="0 0 148.998 10.522">
  <g id="progress-bar-100percent" transform="translate(-81.5 -4.478)">
    <path id="Контур_10" data-name="Контур 10" d="M94.294,611.9H88.219l-3.038,5.261,3.038,5.261h6.075l3.037-5.261Z" transform="translate(-3.681 -607.422)" fill="#8ba2d4"/>
    <path id="Контур_11" data-name="Контур 11" d="M109.52,611.9h-6.075l-3.038,5.261,3.038,5.261h6.075l3.037-5.261Z" transform="translate(-3.702 -607.422)" fill="#8ba2d4"/>
    <path id="Контур_12" data-name="Контур 12" d="M124.746,611.9h-6.075l-3.038,5.261,3.038,5.261h6.075l3.038-5.261Z" transform="translate(-3.723 -607.422)" fill="#8ba2d4"/>
    <path id="Контур_13" data-name="Контур 13" d="M139.972,611.9H133.9l-3.038,5.261,3.038,5.261h6.075l3.038-5.261Z" transform="translate(-3.743 -607.422)" fill="#8ba2d4"/>
    <path id="Контур_14" data-name="Контур 14" d="M155.2,611.9h-6.075l-3.038,5.261,3.038,5.261H155.2l3.038-5.261Z" transform="translate(-3.764 -607.422)" fill="#8ba2d4"/>
    <path id="Контур_15" data-name="Контур 15" d="M170.425,611.9H164.35l-3.038,5.261,3.038,5.261h6.075l3.038-5.261Z" transform="translate(-3.785 -607.422)" fill="#8ba2d4"/>
    <path id="Контур_16" data-name="Контур 16" d="M185.651,611.9h-6.075l-3.038,5.261,3.038,5.261h6.075l3.038-5.261Z" transform="translate(-3.806 -607.422)" fill="#8ba2d4"/>
    <path id="Контур_17" data-name="Контур 17" d="M200.877,611.9H194.8l-3.038,5.261,3.038,5.261h6.075l3.038-5.261Z" transform="translate(-3.869 -607.422)" fill="#8ba2d4"/>
    <path id="Контур_18" data-name="Контур 18" d="M216.1,611.9h-6.075l-3.038,5.261,3.038,5.261H216.1l3.038-5.261Z" transform="translate(-3.869 -607.422)" fill="#8ba2d4"/>
    <path id="Контур_19" data-name="Контур 19" d="M231.33,611.9h-6.075l-3.038,5.261,3.038,5.261h6.075l3.038-5.261Z" transform="translate(-3.869 -607.422)" fill="#8ba2d4"/>
  </g>
</svg>
