<svg xmlns="http://www.w3.org/2000/svg" width="148.998" height="10.523" viewBox="0 0 148.998 10.523">
  <g id="progress-bar-80percent" transform="translate(-81.5 -4.478)">
    <path id="Контур_30" data-name="Контур 30" d="M94.294,672.5H88.219l-3.038,5.261,3.038,5.261h6.075l3.037-5.261Z" transform="translate(-3.681 -668.024)" fill="#8ba2d4"/>
    <path id="Контур_31" data-name="Контур 31" d="M109.52,672.5h-6.075l-3.038,5.261,3.038,5.261h6.075l3.037-5.261Z" transform="translate(-3.702 -668.024)" fill="#8ba2d4"/>
    <path id="Контур_32" data-name="Контур 32" d="M124.746,672.5h-6.075l-3.038,5.261,3.038,5.261h6.075l3.038-5.261Z" transform="translate(-3.723 -668.024)" fill="#8ba2d4"/>
    <path id="Контур_33" data-name="Контур 33" d="M139.972,672.5H133.9l-3.038,5.261,3.038,5.261h6.075l3.038-5.261Z" transform="translate(-3.743 -668.024)" fill="#8ba2d4"/>
    <path id="Контур_34" data-name="Контур 34" d="M155.2,672.5h-6.075l-3.038,5.261,3.038,5.261H155.2l3.038-5.261Z" transform="translate(-3.764 -668.024)" fill="#8ba2d4"/>
    <path id="Контур_35" data-name="Контур 35" d="M170.425,672.5H164.35l-3.038,5.261,3.038,5.261h6.075l3.038-5.261Z" transform="translate(-3.785 -668.024)" fill="#8ba2d4"/>
    <path id="Контур_36" data-name="Контур 36" d="M185.651,672.5h-6.075l-3.038,5.261,3.038,5.261h6.075l3.038-5.261Z" transform="translate(-3.806 -668.024)" fill="#8ba2d4"/>
    <path id="Контур_37" data-name="Контур 37" d="M200.877,672.5H194.8l-3.038,5.261,3.038,5.261h6.075l3.038-5.261Z" transform="translate(-3.869 -668.024)" fill="#8ba2d4"/>
    <path id="Контур_38" data-name="Контур 38" d="M216.1,672.5h-6.075l-3.038,5.261,3.038,5.261H216.1l3.038-5.261Z" transform="translate(-3.869 -668.024)" fill="#fff"/>
    <path id="Контур_39" data-name="Контур 39" d="M231.33,672.5h-6.075l-3.038,5.261,3.038,5.261h6.075l3.038-5.261Z" transform="translate(-3.869 -668.024)" fill="#fff"/>
  </g>
</svg>
