<svg xmlns="http://www.w3.org/2000/svg" width="148.998" height="10.523" viewBox="0 0 148.998 10.523">
  <g id="progress-bar-70percent" transform="translate(-81.5 -4.478)">
    <path id="Контур_20" data-name="Контур 20" d="M94.294,642.2H88.219l-3.038,5.261,3.038,5.261h6.075l3.037-5.261Z" transform="translate(-3.681 -637.724)" fill="#8ba2d4"/>
    <path id="Контур_21" data-name="Контур 21" d="M109.52,642.2h-6.075l-3.038,5.261,3.038,5.261h6.075l3.037-5.261Z" transform="translate(-3.702 -637.724)" fill="#8ba2d4"/>
    <path id="Контур_22" data-name="Контур 22" d="M124.746,642.2h-6.075l-3.038,5.261,3.038,5.261h6.075l3.038-5.261Z" transform="translate(-3.723 -637.724)" fill="#8ba2d4"/>
    <path id="Контур_23" data-name="Контур 23" d="M139.972,642.2H133.9l-3.038,5.261,3.038,5.261h6.075l3.038-5.261Z" transform="translate(-3.743 -637.724)" fill="#8ba2d4"/>
    <path id="Контур_24" data-name="Контур 24" d="M155.2,642.2h-6.075l-3.038,5.261,3.038,5.261H155.2l3.038-5.261Z" transform="translate(-3.764 -637.724)" fill="#8ba2d4"/>
    <path id="Контур_25" data-name="Контур 25" d="M170.425,642.2H164.35l-3.038,5.261,3.038,5.261h6.075l3.038-5.261Z" transform="translate(-3.785 -637.724)" fill="#8ba2d4"/>
    <path id="Контур_26" data-name="Контур 26" d="M185.651,642.2h-6.075l-3.038,5.261,3.038,5.261h6.075l3.038-5.261Z" transform="translate(-3.806 -637.724)" fill="#8ba2d4"/>
    <path id="Контур_27" data-name="Контур 27" d="M200.877,642.2H194.8l-3.038,5.261,3.038,5.261h6.075l3.038-5.261Z" transform="translate(-3.869 -637.724)" fill="#fff"/>
    <path id="Контур_28" data-name="Контур 28" d="M216.1,642.2h-6.075l-3.038,5.261,3.038,5.261H216.1l3.038-5.261Z" transform="translate(-3.869 -637.724)" fill="#fff"/>
    <path id="Контур_29" data-name="Контур 29" d="M231.33,642.2h-6.075l-3.038,5.261,3.038,5.261h6.075l3.038-5.261Z" transform="translate(-3.869 -637.724)" fill="#fff"/>
  </g>
</svg>
