<svg xmlns="http://www.w3.org/2000/svg" width="148.998" height="10.523" viewBox="0 0 148.998 10.523">
  <g id="progress-bar-60percent" transform="translate(-81.5 -4.478)">
    <path id="Контур_40" data-name="Контур 40" d="M94.294,702.8H88.219l-3.038,5.261,3.038,5.261h6.075l3.037-5.261Z" transform="translate(-3.681 -698.326)" fill="#8ba2d4"/>
    <path id="Контур_41" data-name="Контур 41" d="M109.52,702.8h-6.075l-3.038,5.261,3.038,5.261h6.075l3.037-5.261Z" transform="translate(-3.702 -698.326)" fill="#8ba2d4"/>
    <path id="Контур_42" data-name="Контур 42" d="M124.746,702.8h-6.075l-3.038,5.261,3.038,5.261h6.075l3.038-5.261Z" transform="translate(-3.723 -698.326)" fill="#8ba2d4"/>
    <path id="Контур_43" data-name="Контур 43" d="M139.972,702.8H133.9l-3.038,5.261,3.038,5.261h6.075l3.038-5.261Z" transform="translate(-3.743 -698.326)" fill="#8ba2d4"/>
    <path id="Контур_44" data-name="Контур 44" d="M155.2,702.8h-6.075l-3.038,5.261,3.038,5.261H155.2l3.038-5.261Z" transform="translate(-3.764 -698.326)" fill="#8ba2d4"/>
    <path id="Контур_45" data-name="Контур 45" d="M170.425,702.8H164.35l-3.038,5.261,3.038,5.261h6.075l3.038-5.261Z" transform="translate(-3.785 -698.326)" fill="#8ba2d4"/>
    <path id="Контур_46" data-name="Контур 46" d="M185.651,702.8h-6.075l-3.038,5.261,3.038,5.261h6.075l3.038-5.261Z" transform="translate(-3.806 -698.326)" fill="#fff"/>
    <path id="Контур_47" data-name="Контур 47" d="M200.877,702.8H194.8l-3.038,5.261,3.038,5.261h6.075l3.038-5.261Z" transform="translate(-3.869 -698.326)" fill="#fff"/>
    <path id="Контур_48" data-name="Контур 48" d="M216.1,702.8h-6.075l-3.038,5.261,3.038,5.261H216.1l3.038-5.261Z" transform="translate(-3.869 -698.326)" fill="#fff"/>
    <path id="Контур_49" data-name="Контур 49" d="M231.33,702.8h-6.075l-3.038,5.261,3.038,5.261h6.075l3.038-5.261Z" transform="translate(-3.869 -698.326)" fill="#fff"/>
  </g>
</svg>
